<svg id="picture" width="1023.5999999999999" height="796.1999999999999" viewBox="0 0 1023.5999999999999 796.1999999999999"  xmlns="http://www.w3.org/2000/svg">><polygon style="fill: rgb(255, 168, 153); stroke: rgb(206, 32, 2); stroke-width: 10px;" points="646.745,74.578 551.558,120.775 587.758,152.174"></polygon><polygon style="fill: rgb(76, 255, 162); stroke: rgb(8, 173, 88); stroke-width: 10px;" points="646.745,74.578 800.409,0 703.438,0"></polygon><polygon style="fill: rgb(247, 185, 188); stroke: rgb(188, 35, 43); stroke-width: 10px;" points="646.745,74.578 587.758,152.174 649.065,205.349 888.322,0 800.409,0"></polygon><polygon style="fill: rgb(52, 239, 168); stroke: rgb(121, 234, 191); stroke-width: 10px;" points="646.745,74.578 703.438,0 536.506,0 483.157,61.4464 551.558,120.775"></polygon><polygon style="fill: rgb(226, 111, 159); stroke: rgb(255, 204, 225); stroke-width: 10px;" points="184.986,298.686 0,388.465 0,419.072 150.231,444.9 244.034,336.861"></polygon><polygon style="fill: rgb(178, 255, 239); stroke: rgb(121, 224, 202); stroke-width: 10px;" points="184.986,298.686 269.741,257.551 250.466,0 0,0 0,179.09"></polygon><polygon style="fill: rgb(234, 85, 77); stroke: rgb(196, 43, 35); stroke-width: 10px;" points="184.986,298.686 0,179.09 0,388.465"></polygon><polygon style="fill: rgb(67, 204, 185); stroke: rgb(173, 255, 244); stroke-width: 10px;" points="184.986,298.686 244.034,336.861 273.165,303.309 269.741,257.551"></polygon><polygon style="fill: rgb(226, 119, 118); stroke: rgb(196, 28, 25); stroke-width: 10px;" points="380.363,424.999 356.365,456.568 387.654,429.713"></polygon><polygon style="fill: rgb(155, 247, 219); stroke: rgb(120, 226, 194); stroke-width: 10px;" points="380.363,424.999 587.758,152.174 551.558,120.775 344.319,221.356 273.165,303.309 277.285,358.358"></polygon><polygon style="fill: rgb(252, 83, 117); stroke: rgb(173, 29, 58); stroke-width: 10px;" points="380.363,424.999 277.285,358.358 285.501,468.155 333.293,476.371 356.365,456.568"></polygon><polygon style="fill: rgb(101, 155, 24); stroke: rgb(217, 252, 169); stroke-width: 10px;" points="380.363,424.999 387.654,429.713 649.065,205.349 587.758,152.174"></polygon><polygon style="fill: rgb(221, 66, 87); stroke: rgb(249, 192, 200); stroke-width: 10px;" points="269.741,257.551 344.319,221.356 483.157,61.4464 412.314,0 250.466,0"></polygon><polygon style="fill: rgb(104, 249, 165); stroke: rgb(47, 206, 113); stroke-width: 10px;" points="269.741,257.551 273.165,303.309 344.319,221.356"></polygon><polygon style="fill: rgb(153, 24, 65); stroke: rgb(255, 204, 220); stroke-width: 10px;" points="291.063,542.471 98.1842,796.2 310.051,796.2"></polygon><polygon style="fill: rgb(202, 255, 178); stroke: rgb(71, 211, 6); stroke-width: 10px;" points="291.063,542.471 340.385,477.59 333.293,476.371 288.964,514.417"></polygon><polygon style="fill: rgb(232, 106, 142); stroke: rgb(255, 132, 167); stroke-width: 10px;" points="291.063,542.471 288.964,514.417 32.2451,734.754 66.3939,796.2 98.1842,796.2"></polygon><polygon style="fill: rgb(25, 229, 171); stroke: rgb(67, 198, 161); stroke-width: 10px;" points="291.063,542.471 310.051,796.2 811.297,796.2 827.601,714.145 505.655,506.002 340.385,477.59"></polygon><polygon style="fill: rgb(242, 135, 176); stroke: rgb(183, 27, 87); stroke-width: 10px;" points="277.285,358.358 244.034,336.861 150.231,444.9 285.501,468.155"></polygon><polygon style="fill: rgb(31, 229, 13); stroke: rgb(173, 252, 166); stroke-width: 10px;" points="277.285,358.358 273.165,303.309 244.034,336.861"></polygon><polygon style="fill: rgb(252, 180, 166); stroke: rgb(237, 73, 40); stroke-width: 10px;" points="340.385,477.59 356.365,456.568 333.293,476.371"></polygon><polygon style="fill: rgb(102, 124, 0); stroke: rgb(221, 249, 79); stroke-width: 10px;" points="340.385,477.59 505.655,506.002 387.654,429.713 356.365,456.568"></polygon><polygon style="fill: rgb(226, 86, 61); stroke: rgb(221, 55, 22); stroke-width: 10px;" points="505.655,506.002 827.601,714.145 856.958,566.397"></polygon><polygon style="fill: rgb(33, 145, 2); stroke: rgb(108, 216, 78); stroke-width: 10px;" points="505.655,506.002 856.958,566.397 887.589,412.237 649.065,205.349 387.654,429.713"></polygon><polygon style="fill: rgb(234, 156, 152); stroke: rgb(247, 158, 155); stroke-width: 10px;" points="285.501,468.155 288.964,514.417 333.293,476.371"></polygon><polygon style="fill: rgb(133, 226, 141); stroke: rgb(150, 255, 159); stroke-width: 10px;" points="285.501,468.155 150.231,444.9 0,617.931 0,676.733 32.2451,734.754 288.964,514.417"></polygon><polygon style="fill: rgb(232, 0, 30); stroke: rgb(198, 65, 83); stroke-width: 10px;" points="827.601,714.145 954.521,796.2 1023.6,796.2 1023.6,595.045 856.958,566.397"></polygon><polygon style="fill: rgb(7, 193, 159); stroke: rgb(175, 255, 240); stroke-width: 10px;" points="827.601,714.145 811.297,796.2 954.521,796.2"></polygon><polygon style="fill: rgb(255, 26, 10); stroke: rgb(232, 15, 0); stroke-width: 10px;" points="856.958,566.397 1023.6,595.045 1023.6,530.208 887.589,412.237"></polygon><polygon style="fill: rgb(92, 242, 179); stroke: rgb(51, 183, 128); stroke-width: 10px;" points="551.558,120.775 483.157,61.4464 344.319,221.356"></polygon><polygon style="fill: rgb(252, 199, 208); stroke: rgb(237, 120, 140); stroke-width: 10px;" points="887.589,412.237 969.498,0 888.322,0 649.065,205.349"></polygon><polygon style="fill: rgb(212, 224, 87); stroke: rgb(241, 255, 91); stroke-width: 10px;" points="887.589,412.237 1023.6,530.208 1023.6,0 969.498,0"></polygon><polygon style="fill: rgb(204, 87, 69); stroke: rgb(239, 177, 167); stroke-width: 10px;" points="150.231,444.9 0,419.072 0,617.931"></polygon><polygon style="fill: rgb(131, 247, 169); stroke: rgb(7, 155, 57); stroke-width: 10px;" points="483.157,61.4464 536.506,0 412.314,0"></polygon><polygon style="fill: rgb(237, 78, 94); stroke: rgb(244, 168, 176); stroke-width: 10px;" points="32.2451,734.754 0,762.429 0,796.2 66.3939,796.2"></polygon><polygon style="fill: rgb(173, 255, 204); stroke: rgb(42, 252, 119); stroke-width: 10px;" points="32.2451,734.754 0,676.733 0,762.429"></polygon></svg>