<svg id="picture" width="1023.5999999999999" height="796.1999999999999" viewBox="0 0 1023.5999999999999 796.1999999999999"  xmlns="http://www.w3.org/2000/svg">><polygon style="fill: rgb(1, 127, 55); stroke-width: 0.5px; stroke: rgb(1, 127, 55);" points="320.279,767.856 290.284,796.2 353.366,796.2 343.011,766.107"></polygon><polygon style="fill: rgb(167, 219, 232); stroke-width: 0.5px; stroke: rgb(167, 219, 232);" points="320.279,767.856 337.888,751.217 251.741,500.843 78.7305,457.782 29.9436,790.2"></polygon><polygon style="fill: rgb(226, 91, 18); stroke-width: 0.5px; stroke: rgb(226, 91, 18);" points="320.279,767.856 29.9436,790.2 29.063,796.2 290.284,796.2"></polygon><polygon style="fill: rgb(47, 224, 85); stroke-width: 0.5px; stroke: rgb(47, 224, 85);" points="320.279,767.856 343.011,766.107 337.888,751.217"></polygon><polygon style="fill: rgb(76, 166, 239); stroke-width: 0.5px; stroke: rgb(76, 166, 239);" points="337.888,751.217 419.422,674.173 393.169,536.043 251.741,500.843"></polygon><polygon style="fill: rgb(249, 178, 54); stroke-width: 0.5px; stroke: rgb(249, 178, 54);" points="337.888,751.217 343.011,766.107 435.542,758.986 419.422,674.173"></polygon><polygon style="fill: rgb(3, 198, 62); stroke-width: 0.5px; stroke: rgb(3, 198, 62);" points="343.011,766.107 353.366,796.2 442.615,796.2 435.542,758.986"></polygon><polygon style="fill: rgb(143, 234, 100); stroke-width: 0.5px; stroke: rgb(143, 234, 100);" points="876.537,242.229 857.416,260.297 901.589,271.584"></polygon><polygon style="fill: rgb(252, 98, 188); stroke-width: 0.5px; stroke: rgb(252, 98, 188);" points="876.537,242.229 1023.6,103.265 1023.6,0 779.962,0 694.033,28.3742"></polygon><polygon style="fill: rgb(198, 23, 125); stroke-width: 0.5px; stroke: rgb(198, 23, 125);" points="876.537,242.229 694.033,28.3742 369.343,135.589 857.416,260.297"></polygon><polygon style="fill: rgb(44, 193, 76); stroke-width: 0.5px; stroke: rgb(44, 193, 76);" points="876.537,242.229 901.589,271.584 1023.6,302.759 1023.6,103.265"></polygon><polygon style="fill: rgb(184, 136, 226); stroke-width: 0.5px; stroke: rgb(184, 136, 226);" points="100.353,60.8584 79.4132,0 0,0 0,41.2176 94.7844,65.4361"></polygon><polygon style="fill: rgb(2, 244, 83); stroke-width: 0.5px; stroke: rgb(2, 244, 83);" points="100.353,60.8584 102.617,67.4373 134.812,75.6635 142.01,26.6141"></polygon><polygon style="fill: rgb(51, 130, 6); stroke-width: 0.5px; stroke: rgb(51, 130, 6);" points="100.353,60.8584 94.7844,65.4361 102.617,67.4373"></polygon><polygon style="fill: rgb(164, 255, 17); stroke-width: 0.5px; stroke: rgb(164, 255, 17);" points="100.353,60.8584 142.01,26.6141 145.916,0 79.4132,0"></polygon><polygon style="fill: rgb(168, 255, 226); stroke-width: 0.5px; stroke: rgb(168, 255, 226);" points="857.416,260.297 529.653,570.013 1023.6,692.951 1023.6,414.555 901.589,271.584"></polygon><polygon style="fill: rgb(252, 40, 174); stroke-width: 0.5px; stroke: rgb(252, 40, 174);" points="857.416,260.297 369.343,135.589 320.146,151.834 393.169,536.043 529.653,570.013"></polygon><polygon style="fill: rgb(63, 127, 244); stroke-width: 0.5px; stroke: rgb(63, 127, 244);" points="102.617,67.4373 126.032,135.489 134.812,75.6635"></polygon><polygon style="fill: rgb(74, 249, 185); stroke-width: 0.5px; stroke: rgb(74, 249, 185);" points="102.617,67.4373 94.7844,65.4361 0,143.353 0,257.549 113.624,220.029 126.032,135.489"></polygon><polygon style="fill: rgb(120, 237, 179); stroke-width: 0.5px; stroke: rgb(120, 237, 179);" points="901.589,271.584 1023.6,414.555 1023.6,302.759"></polygon><polygon style="fill: rgb(229, 195, 73); stroke-width: 0.5px; stroke: rgb(229, 195, 73);" points="94.7844,65.4361 0,41.2176 0,143.353"></polygon><polygon style="fill: rgb(216, 99, 255); stroke-width: 0.5px; stroke: rgb(216, 99, 255);" points="419.422,674.173 529.653,570.013 393.169,536.043"></polygon><polygon style="fill: rgb(206, 50, 47); stroke-width: 0.5px; stroke: rgb(206, 50, 47);" points="419.422,674.173 435.542,758.986 1023.6,713.73 1023.6,692.951 529.653,570.013"></polygon><polygon style="fill: rgb(200, 224, 83); stroke-width: 0.5px; stroke: rgb(200, 224, 83);" points="435.542,758.986 442.615,796.2 1023.6,796.2 1023.6,713.73"></polygon><polygon style="fill: rgb(165, 97, 216); stroke-width: 0.5px; stroke: rgb(165, 97, 216);" points="314.389,121.548 134.812,75.6635 126.032,135.489 150.886,207.725 320.146,151.834"></polygon><polygon style="fill: rgb(247, 0, 181); stroke-width: 0.5px; stroke: rgb(247, 0, 181);" points="314.389,121.548 369.343,135.589 694.033,28.3742 669.819,0 291.288,0"></polygon><polygon style="fill: rgb(189, 38, 239); stroke-width: 0.5px; stroke: rgb(189, 38, 239);" points="314.389,121.548 291.288,0 174.386,0 142.01,26.6141 134.812,75.6635"></polygon><polygon style="fill: rgb(166, 84, 216); stroke-width: 0.5px; stroke: rgb(166, 84, 216);" points="314.389,121.548 320.146,151.834 369.343,135.589"></polygon><polygon style="fill: rgb(99, 30, 178); stroke-width: 0.5px; stroke: rgb(99, 30, 178);" points="150.886,207.725 126.032,135.489 113.624,220.029"></polygon><polygon style="fill: rgb(169, 249, 200); stroke-width: 0.5px; stroke: rgb(169, 249, 200);" points="150.886,207.725 251.741,500.843 393.169,536.043 320.146,151.834"></polygon><polygon style="fill: rgb(30, 191, 38); stroke-width: 0.5px; stroke: rgb(30, 191, 38);" points="150.886,207.725 113.624,220.029 78.7305,457.782 251.741,500.843"></polygon><polygon style="fill: rgb(234, 183, 159); stroke-width: 0.5px; stroke: rgb(234, 183, 159);" points="694.033,28.3742 779.962,0 669.819,0"></polygon><polygon style="fill: rgb(69, 224, 165); stroke-width: 0.5px; stroke: rgb(69, 224, 165);" points="29.9436,790.2 0,792.505 0,796.2 29.063,796.2"></polygon><polygon style="fill: rgb(163, 255, 228); stroke-width: 0.5px; stroke: rgb(163, 255, 228);" points="29.9436,790.2 78.7305,457.782 0,438.187 0,792.505"></polygon><polygon style="fill: rgb(151, 83, 214); stroke-width: 0.5px; stroke: rgb(151, 83, 214);" points="142.01,26.6141 174.386,0 145.916,0"></polygon><polygon style="fill: rgb(237, 213, 147); stroke-width: 0.5px; stroke: rgb(237, 213, 147);" points="113.624,220.029 0,257.549 0,438.187 78.7305,457.782"></polygon></svg>