<svg id="picture" width="1498.8" height="796.1999999999999" viewBox="0 0 1498.8 796.1999999999999"  xmlns="http://www.w3.org/2000/svg">><polygon style="fill: rgb(89, 89, 89); stroke-width: 0.5px; stroke: rgb(89, 89, 89);" points="406.871,628.692 406.871,508.993 293.312,508.993 293.312,628.692"></polygon><polygon style="fill: rgb(211, 211, 211); stroke-width: 0.5px; stroke: rgb(211, 211, 211);" points="406.871,628.692 406.871,796.2 486.29,796.2 486.29,628.692"></polygon><polygon style="fill: rgb(204, 204, 204); stroke-width: 0.5px; stroke: rgb(204, 204, 204);" points="406.871,628.692 293.312,628.692 293.312,796.2 406.871,796.2"></polygon><polygon style="fill: rgb(211, 211, 211); stroke-width: 0.5px; stroke: rgb(211, 211, 211);" points="406.871,628.692 486.29,628.692 486.29,508.993 406.871,508.993"></polygon><polygon style="fill: rgb(186, 186, 186); stroke-width: 0.5px; stroke: rgb(186, 186, 186);" points="1348.53,628.692 1348.53,508.993 1108.83,508.993 1108.83,628.692"></polygon><polygon style="fill: rgb(2, 2, 2); stroke-width: 0.5px; stroke: rgb(2, 2, 2);" points="1348.53,628.692 1348.53,796.2 1498.8,796.2 1498.8,628.692"></polygon><polygon style="fill: rgb(43, 43, 43); stroke-width: 0.5px; stroke: rgb(43, 43, 43);" points="1348.53,628.692 1108.83,628.692 1108.83,796.2 1348.53,796.2"></polygon><polygon style="fill: rgb(53, 53, 53); stroke-width: 0.5px; stroke: rgb(53, 53, 53);" points="1348.53,628.692 1498.8,628.692 1498.8,508.993 1348.53,508.993"></polygon><polygon style="fill: rgb(155, 155, 155); stroke-width: 0.5px; stroke: rgb(155, 155, 155);" points="51.2671,628.692 51.2671,508.993 0,508.993 0,628.692"></polygon><polygon style="fill: rgb(206, 206, 206); stroke-width: 0.5px; stroke: rgb(206, 206, 206);" points="51.2671,628.692 51.2671,796.2 293.312,796.2 293.312,628.692"></polygon><polygon style="fill: rgb(84, 84, 84); stroke-width: 0.5px; stroke: rgb(84, 84, 84);" points="51.2671,628.692 0,628.692 0,796.2 51.2671,796.2"></polygon><polygon style="fill: rgb(191, 191, 191); stroke-width: 0.5px; stroke: rgb(191, 191, 191);" points="51.2671,628.692 293.312,628.692 293.312,508.993 51.2671,508.993"></polygon><polygon style="fill: rgb(66, 66, 66); stroke-width: 0.5px; stroke: rgb(66, 66, 66);" points="1108.83,628.692 988.318,628.692 988.318,796.2 1108.83,796.2"></polygon><polygon style="fill: rgb(38, 38, 38); stroke-width: 0.5px; stroke: rgb(38, 38, 38);" points="1108.83,628.692 1108.83,508.993 988.318,508.993 988.318,628.692"></polygon><polygon style="fill: rgb(63, 63, 63); stroke-width: 0.5px; stroke: rgb(63, 63, 63);" points="406.871,432.841 406.871,0 293.312,0 293.312,432.841"></polygon><polygon style="fill: rgb(201, 201, 201); stroke-width: 0.5px; stroke: rgb(201, 201, 201);" points="406.871,432.841 406.871,508.993 486.29,508.993 486.29,432.841"></polygon><polygon style="fill: rgb(232, 232, 232); stroke-width: 0.5px; stroke: rgb(232, 232, 232);" points="406.871,432.841 293.312,432.841 293.312,508.993 406.871,508.993"></polygon><polygon style="fill: rgb(170, 170, 170); stroke-width: 0.5px; stroke: rgb(170, 170, 170);" points="406.871,432.841 486.29,432.841 486.29,0 406.871,0"></polygon><polygon style="fill: rgb(71, 71, 71); stroke-width: 0.5px; stroke: rgb(71, 71, 71);" points="1348.53,432.841 1348.53,0 1108.83,0 1108.83,432.841"></polygon><polygon style="fill: rgb(145, 145, 145); stroke-width: 0.5px; stroke: rgb(145, 145, 145);" points="1348.53,432.841 1348.53,508.993 1498.8,508.993 1498.8,432.841"></polygon><polygon style="fill: rgb(150, 150, 150); stroke-width: 0.5px; stroke: rgb(150, 150, 150);" points="1348.53,432.841 1108.83,432.841 1108.83,508.993 1348.53,508.993"></polygon><polygon style="fill: rgb(145, 145, 145); stroke-width: 0.5px; stroke: rgb(145, 145, 145);" points="1348.53,432.841 1498.8,432.841 1498.8,0 1348.53,0"></polygon><polygon style="fill: rgb(102, 102, 102); stroke-width: 0.5px; stroke: rgb(102, 102, 102);" points="51.2671,432.841 51.2671,0 0,0 0,432.841"></polygon><polygon style="fill: rgb(173, 173, 173); stroke-width: 0.5px; stroke: rgb(173, 173, 173);" points="51.2671,432.841 51.2671,508.993 293.312,508.993 293.312,432.841"></polygon><polygon style="fill: rgb(188, 188, 188); stroke-width: 0.5px; stroke: rgb(188, 188, 188);" points="51.2671,432.841 0,432.841 0,508.993 51.2671,508.993"></polygon><polygon style="fill: rgb(229, 229, 229); stroke-width: 0.5px; stroke: rgb(229, 229, 229);" points="51.2671,432.841 293.312,432.841 293.312,0 51.2671,0"></polygon><polygon style="fill: rgb(43, 43, 43); stroke-width: 0.5px; stroke: rgb(43, 43, 43);" points="1108.83,432.841 1108.83,0 988.318,0 988.318,432.841"></polygon><polygon style="fill: rgb(22, 22, 22); stroke-width: 0.5px; stroke: rgb(22, 22, 22);" points="1108.83,432.841 988.318,432.841 988.318,508.993 1108.83,508.993"></polygon><polygon style="fill: rgb(130, 130, 130); stroke-width: 0.5px; stroke: rgb(130, 130, 130);" points="486.29,628.692 988.318,628.692 988.318,508.993 486.29,508.993"></polygon><polygon style="fill: rgb(183, 183, 183); stroke-width: 0.5px; stroke: rgb(183, 183, 183);" points="486.29,628.692 486.29,796.2 988.318,796.2 988.318,628.692"></polygon><polygon style="fill: rgb(76, 76, 76); stroke-width: 0.5px; stroke: rgb(76, 76, 76);" points="486.29,432.841 988.318,432.841 988.318,0 486.29,0"></polygon><polygon style="fill: rgb(209, 209, 209); stroke-width: 0.5px; stroke: rgb(209, 209, 209);" points="486.29,432.841 486.29,508.993 988.318,508.993 988.318,432.841"></polygon></svg>