<svg id="picture" width="1023.5999999999999" height="796.1999999999999" viewBox="0 0 1023.5999999999999 796.1999999999999"  xmlns="http://www.w3.org/2000/svg"><polygon style="fill: rgb(203, 229, 133); stroke: white; stroke-width: 10px;" points="758.25,151.65 606.6,151.65 606.6,303.3 758.25,303.3"></polygon><polygon style="fill: rgb(71, 239, 189); stroke: white; stroke-width: 10px;" points="758.25,151.65 1023.6,151.65 1023.6,0 758.25,0"></polygon><polygon style="fill: rgb(192, 252, 128); stroke: white; stroke-width: 10px;" points="758.25,151.65 758.25,0 606.6,0 606.6,151.65"></polygon><polygon style="fill: rgb(183, 126, 27); stroke: white; stroke-width: 10px;" points="758.25,151.65 758.25,303.3 1023.6,303.3 1023.6,151.65"></polygon><polygon style="fill: rgb(191, 138, 15); stroke: white; stroke-width: 10px;" points="758.25,303.3 606.6,303.3 606.6,454.95 758.25,454.95"></polygon><polygon style="fill: rgb(198, 15, 119); stroke: white; stroke-width: 10px;" points="758.25,303.3 758.25,454.95 1023.6,454.95 1023.6,303.3"></polygon><polygon style="fill: rgb(99, 226, 90); stroke: white; stroke-width: 10px;" points="758.25,454.95 606.6,454.95 606.6,606.6 758.25,606.6"></polygon><polygon style="fill: rgb(252, 245, 169); stroke: white; stroke-width: 10px;" points="758.25,454.95 758.25,606.6 1023.6,606.6 1023.6,454.95"></polygon><polygon style="fill: rgb(183, 60, 58); stroke: white; stroke-width: 10px;" points="758.25,606.6 606.6,606.6 606.6,758.25 758.25,758.25"></polygon><polygon style="fill: rgb(244, 239, 139); stroke: white; stroke-width: 10px;" points="758.25,606.6 758.25,758.25 1023.6,758.25 1023.6,606.6"></polygon><polygon style="fill: rgb(19, 181, 27); stroke: white; stroke-width: 10px;" points="758.25,758.25 606.6,758.25 606.6,796.2 758.25,796.2"></polygon><polygon style="fill: rgb(160, 198, 35); stroke: white; stroke-width: 10px;" points="758.25,758.25 758.25,796.2 1023.6,796.2 1023.6,758.25"></polygon><polygon style="fill: rgb(178, 14, 0); stroke: white; stroke-width: 10px;" points="606.6,151.65 454.95,151.65 454.95,303.3 606.6,303.3"></polygon><polygon style="fill: rgb(182, 237, 130); stroke: white; stroke-width: 10px;" points="606.6,151.65 606.6,0 454.95,0 454.95,151.65"></polygon><polygon style="fill: rgb(156, 226, 90); stroke: white; stroke-width: 10px;" points="606.6,303.3 454.95,303.3 454.95,454.95 606.6,454.95"></polygon><polygon style="fill: rgb(226, 192, 249); stroke: white; stroke-width: 10px;" points="606.6,454.95 454.95,454.95 454.95,606.6 606.6,606.6"></polygon><polygon style="fill: rgb(214, 70, 185); stroke: white; stroke-width: 10px;" points="606.6,606.6 454.95,606.6 454.95,758.25 606.6,758.25"></polygon><polygon style="fill: rgb(186, 204, 255); stroke: white; stroke-width: 10px;" points="606.6,758.25 454.95,758.25 454.95,796.2 606.6,796.2"></polygon><polygon style="fill: rgb(173, 196, 23); stroke: white; stroke-width: 10px;" points="454.95,151.65 303.3,151.65 303.3,303.3 454.95,303.3"></polygon><polygon style="fill: rgb(226, 155, 124); stroke: white; stroke-width: 10px;" points="454.95,151.65 454.95,0 303.3,0 303.3,151.65"></polygon><polygon style="fill: rgb(203, 119, 234); stroke: white; stroke-width: 10px;" points="454.95,303.3 303.3,303.3 303.3,454.95 454.95,454.95"></polygon><polygon style="fill: rgb(211, 80, 244); stroke: white; stroke-width: 10px;" points="454.95,454.95 303.3,454.95 303.3,606.6 454.95,606.6"></polygon><polygon style="fill: rgb(57, 153, 1); stroke: white; stroke-width: 10px;" points="454.95,606.6 303.3,606.6 303.3,758.25 454.95,758.25"></polygon><polygon style="fill: rgb(69, 249, 180); stroke: white; stroke-width: 10px;" points="454.95,758.25 303.3,758.25 303.3,796.2 454.95,796.2"></polygon><polygon style="fill: rgb(171, 198, 71); stroke: white; stroke-width: 10px;" points="303.3,151.65 151.65,151.65 151.65,303.3 303.3,303.3"></polygon><polygon style="fill: rgb(239, 131, 221); stroke: white; stroke-width: 10px;" points="303.3,151.65 303.3,0 151.65,0 151.65,151.65"></polygon><polygon style="fill: rgb(55, 162, 183); stroke: white; stroke-width: 10px;" points="303.3,303.3 151.65,303.3 151.65,454.95 303.3,454.95"></polygon><polygon style="fill: rgb(249, 82, 235); stroke: white; stroke-width: 10px;" points="303.3,454.95 151.65,454.95 151.65,606.6 303.3,606.6"></polygon><polygon style="fill: rgb(73, 56, 170); stroke: white; stroke-width: 10px;" points="303.3,606.6 151.65,606.6 151.65,758.25 303.3,758.25"></polygon><polygon style="fill: rgb(226, 226, 83); stroke: white; stroke-width: 10px;" points="303.3,758.25 151.65,758.25 151.65,796.2 303.3,796.2"></polygon><polygon style="fill: rgb(39, 96, 153); stroke: white; stroke-width: 10px;" points="151.65,151.65 0,151.65 0,303.3 151.65,303.3"></polygon><polygon style="fill: rgb(17, 155, 74); stroke: white; stroke-width: 10px;" points="151.65,151.65 151.65,0 0,0 0,151.65"></polygon><polygon style="fill: rgb(213, 146, 232); stroke: white; stroke-width: 10px;" points="151.65,303.3 0,303.3 0,454.95 151.65,454.95"></polygon><polygon style="fill: rgb(224, 121, 138); stroke: white; stroke-width: 10px;" points="151.65,454.95 0,454.95 0,606.6 151.65,606.6"></polygon><polygon style="fill: rgb(247, 195, 160); stroke: white; stroke-width: 10px;" points="151.65,606.6 0,606.6 0,758.25 151.65,758.25"></polygon><polygon style="fill: rgb(13, 221, 41); stroke: white; stroke-width: 10px;" points="151.65,758.25 0,758.25 0,796.2 151.65,796.2"></polygon></svg>